<svg id="visual" viewBox="0 0 3440 250" width="3440" height="250" xmlns="http://www.w3.org/2000/svg" xmlns:xlink="http://www.w3.org/1999/xlink" version="1.1"><rect x="0" y="0" width="3440" height="250" fill="#162840"></rect><path d="M0 202L25 197.7C50 193.3 100 184.7 149.8 179.8C199.7 175 249.3 174 299.2 172.2C349 170.3 399 167.7 448.8 173.5C498.7 179.3 548.3 193.7 598.2 199C648 204.3 698 200.7 747.8 198C797.7 195.3 847.3 193.7 897.2 194.7C947 195.7 997 199.3 1047 198.7C1097 198 1147 193 1196.8 191.5C1246.7 190 1296.3 192 1346.2 185.2C1396 178.3 1446 162.7 1495.8 163.3C1545.7 164 1595.3 181 1645.2 181.3C1695 181.7 1745 165.3 1794.8 161.3C1844.7 157.3 1894.3 165.7 1944.2 170.8C1994 176 2044 178 2093.8 177.7C2143.7 177.3 2193.3 174.7 2243.2 178.7C2293 182.7 2343 193.3 2393 195.5C2443 197.7 2493 191.3 2542.8 192C2592.7 192.7 2642.3 200.3 2692.2 201.8C2742 203.3 2792 198.7 2841.8 192.3C2891.7 186 2941.3 178 2991.2 179.8C3041 181.7 3091 193.3 3140.8 193C3190.7 192.7 3240.3 180.3 3290.2 177.8C3340 175.3 3390 182.7 3415 186.3L3440 190L3440 0L3415 0C3390 0 3340 0 3290.2 0C3240.3 0 3190.7 0 3140.8 0C3091 0 3041 0 2991.2 0C2941.3 0 2891.7 0 2841.8 0C2792 0 2742 0 2692.2 0C2642.3 0 2592.7 0 2542.8 0C2493 0 2443 0 2393 0C2343 0 2293 0 2243.2 0C2193.3 0 2143.7 0 2093.8 0C2044 0 1994 0 1944.2 0C1894.3 0 1844.7 0 1794.8 0C1745 0 1695 0 1645.2 0C1595.3 0 1545.7 0 1495.8 0C1446 0 1396 0 1346.2 0C1296.3 0 1246.7 0 1196.8 0C1147 0 1097 0 1047 0C997 0 947 0 897.2 0C847.3 0 797.7 0 747.8 0C698 0 648 0 598.2 0C548.3 0 498.7 0 448.8 0C399 0 349 0 299.2 0C249.3 0 199.7 0 149.8 0C100 0 50 0 25 0L0 0Z" fill="#009473"></path><path d="M0 179L25 175.3C50 171.7 100 164.3 149.8 157.7C199.7 151 249.3 145 299.2 141C349 137 399 135 448.8 138.5C498.7 142 548.3 151 598.2 153.8C648 156.7 698 153.3 747.8 151.2C797.7 149 847.3 148 897.2 150.7C947 153.3 997 159.7 1047 164.3C1097 169 1147 172 1196.8 174.7C1246.7 177.3 1296.3 179.7 1346.2 172C1396 164.3 1446 146.7 1495.8 140.3C1545.7 134 1595.3 139 1645.2 147.5C1695 156 1745 168 1794.8 173C1844.7 178 1894.3 176 1944.2 174C1994 172 2044 170 2093.8 166.7C2143.7 163.3 2193.3 158.7 2243.2 160.8C2293 163 2343 172 2393 170.5C2443 169 2493 157 2542.8 149.5C2592.7 142 2642.3 139 2692.2 144.2C2742 149.3 2792 162.7 2841.8 170.7C2891.7 178.7 2941.3 181.3 2991.2 178.8C3041 176.3 3091 168.7 3140.8 168.5C3190.7 168.3 3240.3 175.7 3290.2 171.5C3340 167.3 3390 151.7 3415 143.8L3440 136L3440 0L3415 0C3390 0 3340 0 3290.2 0C3240.3 0 3190.7 0 3140.8 0C3091 0 3041 0 2991.2 0C2941.3 0 2891.7 0 2841.8 0C2792 0 2742 0 2692.2 0C2642.3 0 2592.7 0 2542.8 0C2493 0 2443 0 2393 0C2343 0 2293 0 2243.2 0C2193.3 0 2143.7 0 2093.8 0C2044 0 1994 0 1944.2 0C1894.3 0 1844.7 0 1794.8 0C1745 0 1695 0 1645.2 0C1595.3 0 1545.7 0 1495.8 0C1446 0 1396 0 1346.2 0C1296.3 0 1246.7 0 1196.8 0C1147 0 1097 0 1047 0C997 0 947 0 897.2 0C847.3 0 797.7 0 747.8 0C698 0 648 0 598.2 0C548.3 0 498.7 0 448.8 0C399 0 349 0 299.2 0C249.3 0 199.7 0 149.8 0C100 0 50 0 25 0L0 0Z" fill="#619d67"></path><path d="M0 125L25 124.5C50 124 100 123 149.8 122.5C199.7 122 249.3 122 299.2 120.7C349 119.3 399 116.7 448.8 117.2C498.7 117.7 548.3 121.3 598.2 124.3C648 127.3 698 129.7 747.8 134.3C797.7 139 847.3 146 897.2 147C947 148 997 143 1047 136.7C1097 130.3 1147 122.7 1196.8 119.8C1246.7 117 1296.3 119 1346.2 122.7C1396 126.3 1446 131.7 1495.8 129.3C1545.7 127 1595.3 117 1645.2 113.2C1695 109.3 1745 111.7 1794.8 117.5C1844.7 123.3 1894.3 132.7 1944.2 133.7C1994 134.7 2044 127.3 2093.8 124.5C2143.7 121.7 2193.3 123.3 2243.2 122.5C2293 121.7 2343 118.3 2393 115.8C2443 113.3 2493 111.7 2542.8 109.7C2592.7 107.7 2642.3 105.3 2692.2 106.3C2742 107.3 2792 111.7 2841.8 113.5C2891.7 115.3 2941.3 114.7 2991.2 121.7C3041 128.7 3091 143.3 3140.8 144.5C3190.7 145.7 3240.3 133.3 3290.2 132.2C3340 131 3390 141 3415 146L3440 151L3440 0L3415 0C3390 0 3340 0 3290.2 0C3240.3 0 3190.7 0 3140.8 0C3091 0 3041 0 2991.2 0C2941.3 0 2891.7 0 2841.8 0C2792 0 2742 0 2692.2 0C2642.3 0 2592.7 0 2542.8 0C2493 0 2443 0 2393 0C2343 0 2293 0 2243.2 0C2193.3 0 2143.7 0 2093.8 0C2044 0 1994 0 1944.2 0C1894.3 0 1844.7 0 1794.8 0C1745 0 1695 0 1645.2 0C1595.3 0 1545.7 0 1495.8 0C1446 0 1396 0 1346.2 0C1296.3 0 1246.7 0 1196.8 0C1147 0 1097 0 1047 0C997 0 947 0 897.2 0C847.3 0 797.7 0 747.8 0C698 0 648 0 598.2 0C548.3 0 498.7 0 448.8 0C399 0 349 0 299.2 0C249.3 0 199.7 0 149.8 0C100 0 50 0 25 0L0 0Z" fill="#92a467"></path><path d="M0 89L25 90.3C50 91.7 100 94.3 149.8 96.3C199.7 98.3 249.3 99.7 299.2 102.2C349 104.7 399 108.3 448.8 107C498.7 105.7 548.3 99.3 598.2 97.8C648 96.3 698 99.7 747.8 102.5C797.7 105.3 847.3 107.7 897.2 107.3C947 107 997 104 1047 100.3C1097 96.7 1147 92.3 1196.8 92C1246.7 91.7 1296.3 95.3 1346.2 97.5C1396 99.7 1446 100.3 1495.8 104.2C1545.7 108 1595.3 115 1645.2 113.2C1695 111.3 1745 100.7 1794.8 95.2C1844.7 89.7 1894.3 89.3 1944.2 90.2C1994 91 2044 93 2093.8 94C2143.7 95 2193.3 95 2243.2 96.3C2293 97.7 2343 100.3 2393 103.8C2443 107.3 2493 111.7 2542.8 108.8C2592.7 106 2642.3 96 2692.2 94.3C2742 92.7 2792 99.3 2841.8 101.3C2891.7 103.3 2941.3 100.7 2991.2 103.8C3041 107 3091 116 3140.8 113.5C3190.7 111 3240.3 97 3290.2 89.8C3340 82.7 3390 82.3 3415 82.2L3440 82L3440 0L3415 0C3390 0 3340 0 3290.2 0C3240.3 0 3190.7 0 3140.8 0C3091 0 3041 0 2991.2 0C2941.3 0 2891.7 0 2841.8 0C2792 0 2742 0 2692.2 0C2642.3 0 2592.7 0 2542.8 0C2493 0 2443 0 2393 0C2343 0 2293 0 2243.2 0C2193.3 0 2143.7 0 2093.8 0C2044 0 1994 0 1944.2 0C1894.3 0 1844.7 0 1794.8 0C1745 0 1695 0 1645.2 0C1595.3 0 1545.7 0 1495.8 0C1446 0 1396 0 1346.2 0C1296.3 0 1246.7 0 1196.8 0C1147 0 1097 0 1047 0C997 0 947 0 897.2 0C847.3 0 797.7 0 747.8 0C698 0 648 0 598.2 0C548.3 0 498.7 0 448.8 0C399 0 349 0 299.2 0C249.3 0 199.7 0 149.8 0C100 0 50 0 25 0L0 0Z" fill="#b9aa75"></path><path d="M0 83L25 80.8C50 78.7 100 74.3 149.8 77.3C199.7 80.3 249.3 90.7 299.2 95.3C349 100 399 99 448.8 96.7C498.7 94.3 548.3 90.7 598.2 91C648 91.3 698 95.7 747.8 95.5C797.7 95.3 847.3 90.7 897.2 85.7C947 80.7 997 75.3 1047 77.5C1097 79.7 1147 89.3 1196.8 91.2C1246.7 93 1296.3 87 1346.2 86.3C1396 85.7 1446 90.3 1495.8 91.8C1545.7 93.3 1595.3 91.7 1645.2 89.3C1695 87 1745 84 1794.8 85.3C1844.7 86.7 1894.3 92.3 1944.2 88.8C1994 85.3 2044 72.7 2093.8 68.7C2143.7 64.7 2193.3 69.3 2243.2 71.2C2293 73 2343 72 2393 72.8C2443 73.7 2493 76.3 2542.8 77.7C2592.7 79 2642.3 79 2692.2 82.3C2742 85.7 2792 92.3 2841.8 94.7C2891.7 97 2941.3 95 2991.2 94C3041 93 3091 93 3140.8 89.3C3190.7 85.7 3240.3 78.3 3290.2 74.2C3340 70 3390 69 3415 68.5L3440 68L3440 0L3415 0C3390 0 3340 0 3290.2 0C3240.3 0 3190.7 0 3140.8 0C3091 0 3041 0 2991.2 0C2941.3 0 2891.7 0 2841.8 0C2792 0 2742 0 2692.2 0C2642.3 0 2592.7 0 2542.8 0C2493 0 2443 0 2393 0C2343 0 2293 0 2243.2 0C2193.3 0 2143.7 0 2093.8 0C2044 0 1994 0 1944.2 0C1894.3 0 1844.7 0 1794.8 0C1745 0 1695 0 1645.2 0C1595.3 0 1545.7 0 1495.8 0C1446 0 1396 0 1346.2 0C1296.3 0 1246.7 0 1196.8 0C1147 0 1097 0 1047 0C997 0 947 0 897.2 0C847.3 0 797.7 0 747.8 0C698 0 648 0 598.2 0C548.3 0 498.7 0 448.8 0C399 0 349 0 299.2 0C249.3 0 199.7 0 149.8 0C100 0 50 0 25 0L0 0Z" fill="#d7b18d"></path><path d="M0 47L25 47.5C50 48 100 49 149.8 49.7C199.7 50.3 249.3 50.7 299.2 50C349 49.3 399 47.7 448.8 46C498.7 44.3 548.3 42.7 598.2 45.5C648 48.3 698 55.7 747.8 58.7C797.7 61.7 847.3 60.3 897.2 56.7C947 53 997 47 1047 46.8C1097 46.7 1147 52.3 1196.8 52.3C1246.7 52.3 1296.3 46.7 1346.2 48C1396 49.3 1446 57.7 1495.8 59.8C1545.7 62 1595.3 58 1645.2 55.8C1695 53.7 1745 53.3 1794.8 54.5C1844.7 55.7 1894.3 58.3 1944.2 58.2C1994 58 2044 55 2093.8 56.5C2143.7 58 2193.3 64 2243.2 64.7C2293 65.3 2343 60.7 2393 59.2C2443 57.7 2493 59.3 2542.8 59.5C2592.7 59.7 2642.3 58.3 2692.2 58.3C2742 58.3 2792 59.7 2841.8 59.5C2891.7 59.3 2941.3 57.7 2991.2 56C3041 54.3 3091 52.7 3140.8 55.5C3190.7 58.3 3240.3 65.7 3290.2 65.2C3340 64.7 3390 56.3 3415 52.2L3440 48L3440 0L3415 0C3390 0 3340 0 3290.2 0C3240.3 0 3190.7 0 3140.8 0C3091 0 3041 0 2991.2 0C2941.3 0 2891.7 0 2841.8 0C2792 0 2742 0 2692.2 0C2642.3 0 2592.7 0 2542.8 0C2493 0 2443 0 2393 0C2343 0 2293 0 2243.2 0C2193.3 0 2143.7 0 2093.8 0C2044 0 1994 0 1944.2 0C1894.3 0 1844.7 0 1794.8 0C1745 0 1695 0 1645.2 0C1595.3 0 1545.7 0 1495.8 0C1446 0 1396 0 1346.2 0C1296.3 0 1246.7 0 1196.8 0C1147 0 1097 0 1047 0C997 0 947 0 897.2 0C847.3 0 797.7 0 747.8 0C698 0 648 0 598.2 0C548.3 0 498.7 0 448.8 0C399 0 349 0 299.2 0C249.3 0 199.7 0 149.8 0C100 0 50 0 25 0L0 0Z" fill="#ecbcab"></path><path d="M0 22L25 23.2C50 24.3 100 26.7 149.8 29.2C199.7 31.7 249.3 34.3 299.2 35.2C349 36 399 35 448.8 35.2C498.7 35.3 548.3 36.7 598.2 37C648 37.3 698 36.7 747.8 36.8C797.7 37 847.3 38 897.2 36.7C947 35.3 997 31.7 1047 31C1097 30.3 1147 32.7 1196.8 33.3C1246.7 34 1296.3 33 1346.2 32C1396 31 1446 30 1495.8 29.7C1545.7 29.3 1595.3 29.7 1645.2 32.2C1695 34.7 1745 39.3 1794.8 38.5C1844.7 37.7 1894.3 31.3 1944.2 28.3C1994 25.3 2044 25.7 2093.8 26C2143.7 26.3 2193.3 26.7 2243.2 27.2C2293 27.7 2343 28.3 2393 31.3C2443 34.3 2493 39.7 2542.8 42.2C2592.7 44.7 2642.3 44.3 2692.2 39.5C2742 34.7 2792 25.3 2841.8 21.3C2891.7 17.3 2941.3 18.7 2991.2 20.3C3041 22 3091 24 3140.8 25.3C3190.7 26.7 3240.3 27.3 3290.2 29.8C3340 32.3 3390 36.7 3415 38.8L3440 41L3440 0L3415 0C3390 0 3340 0 3290.2 0C3240.3 0 3190.7 0 3140.8 0C3091 0 3041 0 2991.2 0C2941.3 0 2891.7 0 2841.8 0C2792 0 2742 0 2692.2 0C2642.3 0 2592.7 0 2542.8 0C2493 0 2443 0 2393 0C2343 0 2293 0 2243.2 0C2193.3 0 2143.7 0 2093.8 0C2044 0 1994 0 1944.2 0C1894.3 0 1844.7 0 1794.8 0C1745 0 1695 0 1645.2 0C1595.3 0 1545.7 0 1495.8 0C1446 0 1396 0 1346.2 0C1296.3 0 1246.7 0 1196.8 0C1147 0 1097 0 1047 0C997 0 947 0 897.2 0C847.3 0 797.7 0 747.8 0C698 0 648 0 598.2 0C548.3 0 498.7 0 448.8 0C399 0 349 0 299.2 0C249.3 0 199.7 0 149.8 0C100 0 50 0 25 0L0 0Z" fill="#f7caca"></path></svg>