<svg id="visual" viewBox="0 0 3440 500" width="3440" height="500" xmlns="http://www.w3.org/2000/svg" xmlns:xlink="http://www.w3.org/1999/xlink" version="1.1"><rect x="0" y="0" width="3440" height="500" fill="#162840"></rect><path d="M0 179L47.8 188C95.7 197 191.3 215 286.8 221.2C382.3 227.3 477.7 221.7 573.2 218.3C668.7 215 764.3 214 860 208.3C955.7 202.7 1051.3 192.3 1146.8 195.2C1242.3 198 1337.7 214 1433.2 218.7C1528.7 223.3 1624.3 216.7 1720 209.7C1815.7 202.7 1911.3 195.3 2006.8 186C2102.3 176.7 2197.7 165.3 2293.2 163C2388.7 160.7 2484.3 167.3 2580 169.2C2675.7 171 2771.3 168 2866.8 176.7C2962.3 185.3 3057.7 205.7 3153.2 207C3248.7 208.3 3344.3 190.7 3392.2 181.8L3440 173L3440 0L3392.2 0C3344.3 0 3248.7 0 3153.2 0C3057.7 0 2962.3 0 2866.8 0C2771.3 0 2675.7 0 2580 0C2484.3 0 2388.7 0 2293.2 0C2197.7 0 2102.3 0 2006.8 0C1911.3 0 1815.7 0 1720 0C1624.3 0 1528.7 0 1433.2 0C1337.7 0 1242.3 0 1146.8 0C1051.3 0 955.7 0 860 0C764.3 0 668.7 0 573.2 0C477.7 0 382.3 0 286.8 0C191.3 0 95.7 0 47.8 0L0 0Z" fill="#009473"></path><path d="M0 156L47.8 157.3C95.7 158.7 191.3 161.3 286.8 164C382.3 166.7 477.7 169.3 573.2 166.2C668.7 163 764.3 154 860 153.5C955.7 153 1051.3 161 1146.8 168.5C1242.3 176 1337.7 183 1433.2 183.7C1528.7 184.3 1624.3 178.7 1720 178.8C1815.7 179 1911.3 185 2006.8 181C2102.3 177 2197.7 163 2293.2 163.8C2388.7 164.7 2484.3 180.3 2580 184.7C2675.7 189 2771.3 182 2866.8 174.5C2962.3 167 3057.7 159 3153.2 156.8C3248.7 154.7 3344.3 158.3 3392.2 160.2L3440 162L3440 0L3392.2 0C3344.3 0 3248.7 0 3153.2 0C3057.7 0 2962.3 0 2866.8 0C2771.3 0 2675.7 0 2580 0C2484.3 0 2388.7 0 2293.2 0C2197.7 0 2102.3 0 2006.8 0C1911.3 0 1815.7 0 1720 0C1624.3 0 1528.7 0 1433.2 0C1337.7 0 1242.3 0 1146.8 0C1051.3 0 955.7 0 860 0C764.3 0 668.7 0 573.2 0C477.7 0 382.3 0 286.8 0C191.3 0 95.7 0 47.8 0L0 0Z" fill="#619d67"></path><path d="M0 126L47.8 125.5C95.7 125 191.3 124 286.8 131.5C382.3 139 477.7 155 573.2 155C668.7 155 764.3 139 860 133.8C955.7 128.7 1051.3 134.3 1146.8 132.2C1242.3 130 1337.7 120 1433.2 122.7C1528.7 125.3 1624.3 140.7 1720 140.5C1815.7 140.3 1911.3 124.7 2006.8 120.8C2102.3 117 2197.7 125 2293.2 134.5C2388.7 144 2484.3 155 2580 153.8C2675.7 152.7 2771.3 139.3 2866.8 133C2962.3 126.7 3057.7 127.3 3153.2 134.2C3248.7 141 3344.3 154 3392.2 160.5L3440 167L3440 0L3392.2 0C3344.3 0 3248.7 0 3153.2 0C3057.7 0 2962.3 0 2866.8 0C2771.3 0 2675.7 0 2580 0C2484.3 0 2388.7 0 2293.2 0C2197.7 0 2102.3 0 2006.8 0C1911.3 0 1815.7 0 1720 0C1624.3 0 1528.7 0 1433.2 0C1337.7 0 1242.3 0 1146.8 0C1051.3 0 955.7 0 860 0C764.3 0 668.7 0 573.2 0C477.7 0 382.3 0 286.8 0C191.3 0 95.7 0 47.8 0L0 0Z" fill="#92a467"></path><path d="M0 88L47.8 95.3C95.7 102.7 191.3 117.3 286.8 124.7C382.3 132 477.7 132 573.2 124.7C668.7 117.3 764.3 102.7 860 103C955.7 103.3 1051.3 118.7 1146.8 118.8C1242.3 119 1337.7 104 1433.2 99.8C1528.7 95.7 1624.3 102.3 1720 104.7C1815.7 107 1911.3 105 2006.8 107.2C2102.3 109.3 2197.7 115.7 2293.2 121.5C2388.7 127.3 2484.3 132.7 2580 135.2C2675.7 137.7 2771.3 137.3 2866.8 132C2962.3 126.7 3057.7 116.3 3153.2 115.3C3248.7 114.3 3344.3 122.7 3392.2 126.8L3440 131L3440 0L3392.2 0C3344.3 0 3248.7 0 3153.2 0C3057.7 0 2962.3 0 2866.8 0C2771.3 0 2675.7 0 2580 0C2484.3 0 2388.7 0 2293.2 0C2197.7 0 2102.3 0 2006.8 0C1911.3 0 1815.7 0 1720 0C1624.3 0 1528.7 0 1433.2 0C1337.7 0 1242.3 0 1146.8 0C1051.3 0 955.7 0 860 0C764.3 0 668.7 0 573.2 0C477.7 0 382.3 0 286.8 0C191.3 0 95.7 0 47.8 0L0 0Z" fill="#b9aa75"></path><path d="M0 105L47.8 102.8C95.7 100.7 191.3 96.3 286.8 96C382.3 95.7 477.7 99.3 573.2 102.8C668.7 106.3 764.3 109.7 860 105.3C955.7 101 1051.3 89 1146.8 82.2C1242.3 75.3 1337.7 73.7 1433.2 75.8C1528.7 78 1624.3 84 1720 88.3C1815.7 92.7 1911.3 95.3 2006.8 99.2C2102.3 103 2197.7 108 2293.2 104.2C2388.7 100.3 2484.3 87.7 2580 83.7C2675.7 79.7 2771.3 84.3 2866.8 90.2C2962.3 96 3057.7 103 3153.2 104.3C3248.7 105.7 3344.3 101.3 3392.2 99.2L3440 97L3440 0L3392.2 0C3344.3 0 3248.7 0 3153.2 0C3057.7 0 2962.3 0 2866.8 0C2771.3 0 2675.7 0 2580 0C2484.3 0 2388.7 0 2293.2 0C2197.7 0 2102.3 0 2006.8 0C1911.3 0 1815.7 0 1720 0C1624.3 0 1528.7 0 1433.2 0C1337.7 0 1242.3 0 1146.8 0C1051.3 0 955.7 0 860 0C764.3 0 668.7 0 573.2 0C477.7 0 382.3 0 286.8 0C191.3 0 95.7 0 47.8 0L0 0Z" fill="#d7b18d"></path><path d="M0 77L47.8 76.8C95.7 76.7 191.3 76.3 286.8 75.5C382.3 74.7 477.7 73.3 573.2 73.5C668.7 73.7 764.3 75.3 860 73.5C955.7 71.7 1051.3 66.3 1146.8 64.8C1242.3 63.3 1337.7 65.7 1433.2 68.8C1528.7 72 1624.3 76 1720 72.3C1815.7 68.7 1911.3 57.3 2006.8 56.5C2102.3 55.7 2197.7 65.3 2293.2 65.2C2388.7 65 2484.3 55 2580 53.7C2675.7 52.3 2771.3 59.7 2866.8 60C2962.3 60.3 3057.7 53.7 3153.2 52.8C3248.7 52 3344.3 57 3392.2 59.5L3440 62L3440 0L3392.2 0C3344.3 0 3248.7 0 3153.2 0C3057.7 0 2962.3 0 2866.8 0C2771.3 0 2675.7 0 2580 0C2484.3 0 2388.7 0 2293.2 0C2197.7 0 2102.3 0 2006.8 0C1911.3 0 1815.7 0 1720 0C1624.3 0 1528.7 0 1433.2 0C1337.7 0 1242.3 0 1146.8 0C1051.3 0 955.7 0 860 0C764.3 0 668.7 0 573.2 0C477.7 0 382.3 0 286.8 0C191.3 0 95.7 0 47.8 0L0 0Z" fill="#ecbcab"></path><path d="M0 45L47.8 41.3C95.7 37.7 191.3 30.3 286.8 27.5C382.3 24.7 477.7 26.3 573.2 29.7C668.7 33 764.3 38 860 41.8C955.7 45.7 1051.3 48.3 1146.8 45.2C1242.3 42 1337.7 33 1433.2 28.5C1528.7 24 1624.3 24 1720 27.5C1815.7 31 1911.3 38 2006.8 42C2102.3 46 2197.7 47 2293.2 44.7C2388.7 42.3 2484.3 36.7 2580 35.8C2675.7 35 2771.3 39 2866.8 39.7C2962.3 40.3 3057.7 37.7 3153.2 36C3248.7 34.3 3344.3 33.7 3392.2 33.3L3440 33L3440 0L3392.2 0C3344.3 0 3248.7 0 3153.2 0C3057.7 0 2962.3 0 2866.8 0C2771.3 0 2675.7 0 2580 0C2484.3 0 2388.7 0 2293.2 0C2197.7 0 2102.3 0 2006.8 0C1911.3 0 1815.7 0 1720 0C1624.3 0 1528.7 0 1433.2 0C1337.7 0 1242.3 0 1146.8 0C1051.3 0 955.7 0 860 0C764.3 0 668.7 0 573.2 0C477.7 0 382.3 0 286.8 0C191.3 0 95.7 0 47.8 0L0 0Z" fill="#f7caca"></path></svg>