<svg id="visual" viewBox="0 0 688 700" width="auto" height="auto" xmlns="http://www.w3.org/2000/svg" xmlns:xlink="http://www.w3.org/1999/xlink" version="1.1"><rect x="0" y="0" width="688" height="700" fill="#162840"></rect><defs><linearGradient id="grad1_0" x1="0%" y1="100%" x2="100%" y2="0%"><stop offset="30%" stop-color="#009473" stop-opacity="1"></stop><stop offset="70%" stop-color="#009473" stop-opacity="1"></stop></linearGradient></defs><defs><linearGradient id="grad1_1" x1="0%" y1="100%" x2="100%" y2="0%"><stop offset="30%" stop-color="#009473" stop-opacity="1"></stop><stop offset="70%" stop-color="#007979" stop-opacity="1"></stop></linearGradient></defs><defs><linearGradient id="grad1_2" x1="0%" y1="100%" x2="100%" y2="0%"><stop offset="30%" stop-color="#005d72" stop-opacity="1"></stop><stop offset="70%" stop-color="#007979" stop-opacity="1"></stop></linearGradient></defs><defs><linearGradient id="grad1_3" x1="0%" y1="100%" x2="100%" y2="0%"><stop offset="30%" stop-color="#005d72" stop-opacity="1"></stop><stop offset="70%" stop-color="#00425d" stop-opacity="1"></stop></linearGradient></defs><defs><linearGradient id="grad1_4" x1="0%" y1="100%" x2="100%" y2="0%"><stop offset="30%" stop-color="#162840" stop-opacity="1"></stop><stop offset="70%" stop-color="#00425d" stop-opacity="1"></stop></linearGradient></defs><defs><linearGradient id="grad2_0" x1="0%" y1="100%" x2="100%" y2="0%"><stop offset="30%" stop-color="#009473" stop-opacity="1"></stop><stop offset="70%" stop-color="#009473" stop-opacity="1"></stop></linearGradient></defs><defs><linearGradient id="grad2_1" x1="0%" y1="100%" x2="100%" y2="0%"><stop offset="30%" stop-color="#007979" stop-opacity="1"></stop><stop offset="70%" stop-color="#009473" stop-opacity="1"></stop></linearGradient></defs><defs><linearGradient id="grad2_2" x1="0%" y1="100%" x2="100%" y2="0%"><stop offset="30%" stop-color="#007979" stop-opacity="1"></stop><stop offset="70%" stop-color="#005d72" stop-opacity="1"></stop></linearGradient></defs><defs><linearGradient id="grad2_3" x1="0%" y1="100%" x2="100%" y2="0%"><stop offset="30%" stop-color="#00425d" stop-opacity="1"></stop><stop offset="70%" stop-color="#005d72" stop-opacity="1"></stop></linearGradient></defs><defs><linearGradient id="grad2_4" x1="0%" y1="100%" x2="100%" y2="0%"><stop offset="30%" stop-color="#00425d" stop-opacity="1"></stop><stop offset="70%" stop-color="#162840" stop-opacity="1"></stop></linearGradient></defs><g transform="translate(688, 700)"><path d="M-245.4 0C-202.7 -18.2 -160 -36.4 -146.9 -60.8C-133.7 -85.3 -150.1 -115.8 -147.1 -147.1C-144.1 -178.3 -121.6 -210.2 -93.9 -226.7C-66.2 -243.2 -33.1 -244.3 0 -245.4L0 0Z" fill="#0b354f"></path><path d="M-196.3 0C-162.2 -14.6 -128 -29.2 -117.5 -48.7C-107 -68.2 -120.1 -92.7 -117.7 -117.7C-115.2 -142.7 -97.3 -168.2 -75.1 -181.4C-52.9 -194.6 -26.5 -195.4 0 -196.3L0 0Z" fill="#005069"></path><path d="M-147.2 0C-121.6 -10.9 -96 -21.9 -88.1 -36.5C-80.2 -51.2 -90.1 -69.5 -88.2 -88.2C-86.4 -107 -73 -126.1 -56.3 -136C-39.7 -145.9 -19.8 -146.6 0 -147.2L0 0Z" fill="#006b77"></path><path d="M-98.2 0C-81.1 -7.3 -64 -14.6 -58.8 -24.3C-53.5 -34.1 -60 -46.3 -58.8 -58.8C-57.6 -71.3 -48.7 -84.1 -37.6 -90.7C-26.5 -97.3 -13.2 -97.7 0 -98.2L0 0Z" fill="#008777"></path><path d="M-49.1 0C-40.5 -3.6 -32 -7.3 -29.4 -12.2C-26.7 -17.1 -30 -23.2 -29.4 -29.4C-28.8 -35.7 -24.3 -42 -18.8 -45.3C-13.2 -48.6 -6.6 -48.9 0 -49.1L0 0Z" fill="#009473"></path></g><g transform="translate(0, 0)"><path d="M245.4 0C246.4 35.3 247.4 70.7 226.7 93.9C206 117.1 163.5 128.3 132.9 132.9C102.4 137.6 83.7 135.7 63.5 153.4C43.4 171 21.7 208.2 0 245.4L0 0Z" fill="#0b354f"></path><path d="M196.3 0C197.1 28.3 197.9 56.5 181.4 75.1C164.8 93.7 130.8 102.6 106.3 106.3C81.9 110.1 67 108.6 50.8 122.7C34.7 136.8 17.3 166.6 0 196.3L0 0Z" fill="#005069"></path><path d="M147.2 0C147.8 21.2 148.5 42.4 136 56.3C123.6 70.3 98.1 77 79.8 79.8C61.4 82.5 50.2 81.4 38.1 92C26 102.6 13 124.9 0 147.2L0 0Z" fill="#006b77"></path><path d="M98.2 0C98.6 14.1 99 28.3 90.7 37.6C82.4 46.9 65.4 51.3 53.2 53.2C40.9 55 33.5 54.3 25.4 61.3C17.3 68.4 8.7 83.3 0 98.2L0 0Z" fill="#008777"></path><path d="M49.1 0C49.3 7.1 49.5 14.1 45.3 18.8C41.2 23.4 32.7 25.7 26.6 26.6C20.5 27.5 16.7 27.1 12.7 30.7C8.7 34.2 4.3 41.6 0 49.1L0 0Z" fill="#009473"></path></g></svg>